# xmcd
# 
# Track frame offsets:
#     150
#     26320
#     48867
#     78580
#     97800
#     115887
#     139610
#     156097
#     177815
#     198270
#     220197
#     234512
#     250587
#     275117
#     297235
#     314965
#     333842
# 
# Disc length: 4723
# 
# Revision: 5
# Processed by: cddbd v1.5.2PL0 Copyright (c) Steve Scherf et al.
# Submitted via: BonkEnc v1.0.8
# 
DISCID=ea127111
DTITLE=B.B. King - Deuces wild
DYEAR=1997
DGENRE=Blues
TTITLE0=If you love me with Van Morrison
TTITLE1=The thrill is gone with Tracy Chapman
TTITLE2=Rock me baby with Eric Clapton
TTITLE3=Please send me someone to love with Mick Hucknall (Simply Red)
TTITLE4=Baby I love you with Bonnie Raitt
TTITLE5=Ain't nobody home with D'Angelo
TTITLE6=Pauly's birthday boogie with Jools Holland
TTITLE7=There must be a better world somewhere with Dr. John
TTITLE8=Confessin' the blues with Marty Stuart
TTITLE9=Hummingbird with Dionne Warwick
TTITLE10=Bring it home to me with Paul Carrack
TTITLE11=Paying the cost to be the boss with The Rolling Stones
TTITLE12=Let the good times roll with Zucchero
TTITLE13=Dangerous mood with Joe Cocker
TTITLE14=Keep it coming with Heavy D
TTITLE15=Cryin' won't help you babe with David Gilmour and Paul Carrack
TTITLE16=Night life with Willie Nelson
EXTD=
EXTT0=
EXTT1=
EXTT2=
EXTT3=
EXTT4=
EXTT5=
EXTT6=
EXTT7=
EXTT8=
EXTT9=
EXTT10=
EXTT11=
EXTT12=
EXTT13=
EXTT14=
EXTT15=
EXTT16=
PLAYORDER=
